<?xml version="1.0" standalone="no"?>
<!DOCTYPE svg PUBLIC "-//W3C//DTD SVG 20010904//EN"
 "http://www.w3.org/TR/2001/REC-SVG-20010904/DTD/svg10.dtd">
<svg version="1.0" xmlns="http://www.w3.org/2000/svg"
 width="128.000000pt" height="128.000000pt" viewBox="0 0 128.000000 128.000000"
 preserveAspectRatio="xMidYMid meet">

<g transform="translate(0.000000,128.000000) scale(0.100000,-0.100000)"
fill="#000000" stroke="none">
<path d="M650 1195 c11 -13 5 -15 -44 -15 -36 0 -55 -4 -51 -10 4 -6 -13 -10
-42 -11 -52 0 -110 -17 -65 -18 35 -1 26 -14 -33 -45 -31 -16 -53 -31 -51 -33
3 -3 -7 -23 -20 -45 -14 -22 -28 -52 -31 -67 -17 -96 -18 -171 -2 -313 10 -84
18 -193 19 -243 1 -139 28 -182 185 -287 57 -38 64 -40 121 -36 56 3 68 9 144
63 138 100 145 118 155 370 3 88 10 164 15 169 6 6 10 25 10 44 0 18 4 31 9
28 10 -6 7 139 -4 173 -5 16 -4 21 4 17 14 -9 3 23 -15 44 -7 8 -12 20 -11 25
3 16 -92 75 -132 81 -29 5 -41 13 -56 42 -20 37 -76 82 -103 82 -12 0 -12 -3
-2 -15z m208 -419 c-1 -20 6 -44 18 -61 39 -56 44 -71 44 -144 0 -54 -7 -97
-27 -156 l-26 -82 -118 -62 -118 -62 -108 55 c-59 30 -114 59 -121 64 -18 12
-61 167 -68 247 -4 51 -2 82 10 115 9 25 16 66 16 91 0 25 6 54 14 64 13 19
15 18 77 -1 84 -25 188 -24 249 3 l45 20 58 -29 c54 -27 57 -31 55 -62z"/>
</g>
</svg>
